<?xml version="1.0" encoding="UTF-8"?>
<svg version="1.1" xmlns="http://www.w3.org/2000/svg" width="48" height="48">
<path d="M0 0 C11.22 0 22.44 0 34 0 C33.855625 3.485625 33.71125 6.97125 33.5625 10.5625 C33.51939697 11.64732666 33.47629395 12.73215332 33.43188477 13.84985352 C32.82217212 27.86293211 32.82217212 27.86293211 30.79907227 30.66088867 C28.32595227 32.5017169 26.62612336 32.38775754 23.5625 32.3984375 C22.50289062 32.40230469 21.44328125 32.40617187 20.3515625 32.41015625 C19.24554687 32.39855469 18.13953125 32.38695312 17 32.375 C15.89398438 32.38660156 14.78796875 32.39820313 13.6484375 32.41015625 C12.58882812 32.40628906 11.52921875 32.40242188 10.4375 32.3984375 C9.46683594 32.39505371 8.49617187 32.39166992 7.49609375 32.38818359 C5 32 5 32 3.20092773 30.66088867 C-0.43150968 25.63721074 0.67397322 16.51411099 0.4375 10.5625 C0.293125 7.076875 0.14875 3.59125 0 0 Z M8 7 C7.90311779 12.44693314 7.87137825 17.63904667 9 23 C9.66 23 10.32 23 11 23 C10.88658509 20.51979503 10.75985314 18.04155031 10.625 15.5625 C10.5940625 14.85544922 10.563125 14.14839844 10.53125 13.41992188 C10.42719371 11.60760812 10.22080108 9.80182012 10 8 C9.34 7.67 8.68 7.34 8 7 Z M16 7 C16 12.28 16 17.56 16 23 C16.66 23 17.32 23 18 23 C18 17.72 18 12.44 18 7 C17.34 7 16.68 7 16 7 Z M25 7 C23.00383446 8.99616554 23.59016573 12.81701963 23.4375 15.5625 C23.39431641 16.27341797 23.35113281 16.98433594 23.30664062 17.71679688 C23.20028223 19.47761912 23.09961154 21.2387832 23 23 C23.66 23 24.32 23 25 23 C26.12862175 17.63904667 26.09688221 12.44693314 26 7 C25.67 7 25.34 7 25 7 Z " fill="#FFFFFF" transform="translate(7,14)"/>
<path d="M0 0 C1.24652344 -0.02835937 2.49304688 -0.05671875 3.77734375 -0.0859375 C7.0625 0.375 7.0625 0.375 9.00390625 2.2109375 C10.0625 4.375 10.0625 4.375 10.0625 7.375 C13.3625 7.375 16.6625 7.375 20.0625 7.375 C20.0625 8.695 20.0625 10.015 20.0625 11.375 C6.8625 11.375 -6.3375 11.375 -19.9375 11.375 C-19.9375 10.055 -19.9375 8.735 -19.9375 7.375 C-16.6375 7.375 -13.3375 7.375 -9.9375 7.375 C-9.81375 6.59125 -9.69 5.8075 -9.5625 5 C-8.24693889 -0.52535666 -5.03772123 0.05198887 0 0 Z M-4.9375 4.375 C-5.2675 5.365 -5.5975 6.355 -5.9375 7.375 C-1.9775 7.375 1.9825 7.375 6.0625 7.375 C5.7325 6.385 5.4025 5.395 5.0625 4.375 C1.7625 4.375 -1.5375 4.375 -4.9375 4.375 Z " fill="#FFFFFF" transform="translate(23.9375,1.625)"/>
</svg>
